Coordinates
version=1
nRows=13
nColumns=18
inDegrees=yes

Units are S.I. units (second, meters, Newtons, ...)
If the header above contains a line with 'inDegrees', this indicates whether rotational values are in degrees (yes) or radians (no).

endheader
time	ground_thorax_rot_x	ground_thorax_rot_y	ground_thorax_rot_z	ground_thorax_tx	ground_thorax_ty	ground_thorax_tz	clav_prot	clav_elev	scapula_abduction	scapula_elevation	scapula_upward_rot	scapula_winging	plane_elv	shoulder_elv	axial_rot	elbow_flexion	pro_sup
      2.49000000	      1.49086478	     -7.48830263	    -11.11694296	      0.00000000	      0.00000000	      0.00000000	    -19.73376181	     -3.59972786	     -6.98761370	     -3.66007804	     14.25722430	      4.62140195	    -24.76363570	     16.32082806	     39.15647150	      0.00000000	     34.32000000
      2.50000000	      1.61774772	     -7.51097293	    -11.04855020	      0.00000000	      0.00000000	      0.00000000	    -19.73099497	     -3.65025384	     -6.98028143	     -3.69387661	     14.23963773	      4.64021037	    -24.74720165	     16.25824082	     39.16556450	      0.00000000	     34.32000000
      2.51000000	      1.48212199	     -7.42357880	    -11.10784422	      0.00000000	      0.00000000	      0.00000000	    -19.76500684	     -3.96546921	     -7.18311405	     -3.83893964	     13.86417251	      4.83495181	    -24.07158752	     16.34250632	     39.60480762	      0.00000000	     34.32000000
      2.52000000	      1.46452111	     -7.58829461	    -11.12717990	      0.00000000	      0.00000000	      0.00000000	    -19.59148562	     -3.98027609	     -6.84898821	     -3.85258826	     13.90961910	      4.80532113	    -24.09077326	     16.09776388	     41.63473168	      0.00000000	     34.32000000
      2.53000000	      1.40031248	     -7.63351451	    -11.22344745	      0.00000000	      0.00000000	      0.00000000	    -19.58821618	     -4.15054810	     -6.92811714	     -3.92647792	     13.69430177	      4.91181607	    -22.68395914	     16.35611496	     38.44334796	      0.00000000	     34.32000000
      2.54000000	      1.28166993	     -7.79544143	    -11.17038536	      0.00000000	      0.00000000	      0.00000000	    -19.46432840	     -4.25960751	     -6.79192981	     -3.95549691	     13.51167023	      4.97506446	    -22.86369962	     16.28034909	     38.74370134	      0.00000000	     34.32000000
      2.55000000	      1.25191543	     -7.83191787	    -11.33828072	      0.00000000	      0.00000000	      0.00000000	    -19.49789858	     -4.46755669	     -6.77520747	     -4.12781679	     13.55496366	      5.03358184	    -23.36276523	     16.15777405	     39.48225124	      0.00000000	     34.32000000
      2.56000000	      1.37153303	     -7.76350215	    -11.24677264	      0.00000000	      0.00000000	      0.00000000	    -19.59682756	     -4.29315177	     -6.98396475	     -4.00247647	     13.56563490	      4.98970069	    -23.64156247	     16.17894470	     39.60853892	      0.00000000	     34.32000000
      2.57000000	      1.28884584	     -7.88654867	    -11.24995695	      0.00000000	      0.00000000	      0.00000000	    -19.48551979	     -4.40400226	     -6.90557237	     -4.01722261	     13.32081200	      5.07126418	    -23.04359206	     16.33963284	     38.71039268	      0.00000000	     34.32000000
      2.58000000	      1.31945042	     -7.79948333	    -11.21538693	      0.00000000	      0.00000000	      0.00000000	    -19.59665991	     -4.33815322	     -7.16102860	     -3.95248720	     13.24319053	      5.08546034	    -22.54147045	     16.34305839	     37.86145810	      0.00000000	     34.32000000
      2.59000000	      1.34781383	     -7.80114515	    -11.24551433	      0.00000000	      0.00000000	      0.00000000	    -19.60636210	     -4.32729652	     -7.16466026	     -3.95179064	     13.27037043	      5.07640285	    -22.53097221	     16.27220546	     37.90354408	      0.00000000	     34.32000000
      2.60000000	      1.45492882	     -7.84989922	    -11.10365352	      0.00000000	      0.00000000	      0.00000000	    -19.53395307	     -4.21885675	     -7.06450506	     -3.86473859	     13.27008806	      5.03322365	    -22.66643444	     16.41919712	     37.52564366	      0.00000000	     34.32000000
      2.61000000	      1.48950010	     -7.88062459	    -11.13586541	      0.00000000	      0.00000000	      0.00000000	    -19.54471584	     -4.23829539	     -7.06943939	     -3.88428146	     13.28573616	      5.03677068	    -22.66834459	     16.39711193	     37.54843024	      0.00000000	     34.32000000
